<svg xmlns="http://www.w3.org/2000/svg" version="1.1" xmlns:xlink="http://www.w3.org/1999/xlink" xmlns:svgjs="http://svgjs.dev/svgjs" viewBox="0 0 9.611339094773282 2.488212971645524"><g transform="matrix(1,0,0,1,2.396374934424642,0.42911411654896947)"><rect width="9.611339094773282" height="9.611339094773282" x="-2.396374934424642" y="-3.9906771781128483" fill="#ffffff"></rect><g><path d=" M 0.552894287109375 0.009404296874999996 L 0.524681396484375 0.5407470703125 L 0.319354248046875 0.5595556640625 L 0.209637451171875 0.27507568359375006 L 0.192396240234375 0.5650415039062501 L 0.016065673828124998 0.5650415039062501 L 0.030172119140625 0.009404296874999996 L 0.226094970703125 0 L 0.361673583984375 0.28212890625000003 L 0.367943115234375 0.015673828125000067 L 0.552894287109375 0.009404296874999996 M 1.075616455078125 0.5376123046875 L 0.8812609863281251 0.5626904296875 L 0.8577502441406251 0.47413330078125004 L 0.768409423828125 0.47413330078125004 L 0.748817138671875 0.5626904296875 L 0.548975830078125 0.54309814453125 L 0.704930419921875 0.021159667968750018 L 0.922796630859375 0.010187988281250004 L 1.075616455078125 0.5376123046875 M 0.843643798828125 0.354228515625 L 0.813863525390625 0.21786621093750003 L 0.784866943359375 0.354228515625 L 0.843643798828125 0.354228515625 M 1.7727099609375 0.3056396484375 Q 1.7727099609375 0.36167358398437505 1.769183349609375 0.41731567382812507 Q 1.76565673828125 0.47295776367187503 1.76095458984375 0.52899169921875 L 1.5595458984375 0.53839599609375 Q 1.5685583496093751 0.47021484375000006 1.5758074951171874 0.40183776855468756 Q 1.583056640625 0.333460693359375 1.583056640625 0.26488769531250006 Q 1.583056640625 0.26057739257812507 1.5826647949218748 0.24980163574218756 Q 1.58227294921875 0.23902587890625004 1.5812933349609375 0.22531127929687506 Q 1.580313720703125 0.21159667968750007 1.5785504150390626 0.19690246582031257 Q 1.576787109375 0.18220825195312507 1.5738482666015625 0.16986511230468754 Q 1.570909423828125 0.15752197265625006 1.56659912109375 0.14968505859375003 Q 1.562288818359375 0.14184814453125005 1.5564111328124999 0.14184814453125005 Q 1.542696533203125 0.14184814453125005 1.534859619140625 0.15223205566406256 Q 1.5270227050781249 0.16261596679687507 1.5233001708984375 0.17711425781250006 Q 1.5195776367187501 0.19161254882812506 1.5187939453125 0.20669860839843757 Q 1.51801025390625 0.22178466796875002 1.51801025390625 0.23118896484375007 Q 1.51801025390625 0.24764648437500003 1.5187939453125 0.26410400390625005 Q 1.5195776367187501 0.2805615234375 1.5195776367187501 0.29780273437500004 Q 1.5195776367187501 0.35853881835937507 1.5166387939453125 0.41888305664062503 Q 1.513699951171875 0.47922729492187505 1.5093896484375 0.53996337890625 L 1.3236547851562501 0.5470166015625 Q 1.332667236328125 0.47883544921875004 1.3395245361328125 0.41085021972656255 Q 1.3463818359375 0.342864990234375 1.3463818359375 0.27429199218750006 Q 1.3463818359375 0.26998168945312506 1.345989990234375 0.25861816406250004 Q 1.34559814453125 0.24725463867187503 1.3446185302734375 0.23314819335937503 Q 1.343638916015625 0.21904174804687504 1.3416796875 0.20375976562500003 Q 1.339720458984375 0.18847778320312503 1.3367816162109376 0.17574279785156255 Q 1.3338427734375 0.16300781250000002 1.329532470703125 0.15477905273437503 Q 1.32522216796875 0.14655029296875005 1.31895263671875 0.14655029296875005 Q 1.309156494140625 0.14655029296875005 1.3024951171875 0.15419128417968753 Q 1.295833740234375 0.16183227539062506 1.2917193603515624 0.17397949218750003 Q 1.28760498046875 0.18612670898437506 1.2854498291015626 0.20082092285156256 Q 1.283294677734375 0.21551513671875006 1.2823150634765625 0.22962158203125005 Q 1.28133544921875 0.24372802734375004 1.2811395263671874 0.25567932128906257 Q 1.280943603515625 0.26763061523437504 1.2805517578125 0.27350830078125005 L 1.27193115234375 0.5595556640625 L 1.07444091796875 0.5595556640625 Q 1.08071044921875 0.49333374023437504 1.0871759033203126 0.42671997070312506 Q 1.093641357421875 0.36010620117187503 1.0985394287109376 0.29368835449218755 Q 1.1034375 0.22727050781250002 1.106572265625 0.16065673828125004 Q 1.10970703125 0.09404296875000007 1.10970703125 0.02742919921875009 L 1.2962255859375 0.01959228515625 L 1.29544189453125 0.06504638671875007 Q 1.3040625 0.05407470703125006 1.3150341796875 0.04290710449218749 Q 1.326005859375 0.03173950195312503 1.3383489990234376 0.022922973632812593 Q 1.3506921386718749 0.014106445312500049 1.3646026611328126 0.008620605468749987 Q 1.3785131835937499 0.0031347656250000355 1.3934033203125 0.0031347656250000355 Q 1.412603759765625 0.0031347656250000355 1.4278857421875 0.006073608398437513 Q 1.443167724609375 0.009012451171874991 1.4555108642578125 0.01606567382812507 Q 1.46785400390625 0.02311889648437504 1.47725830078125 0.03546203613281251 Q 1.48666259765625 0.04780517578124999 1.4937158203125 0.06661376953125009 Q 1.5062548828125 0.052899169921875044 1.5189898681640626 0.04114379882812502 Q 1.531724853515625 0.029388427734375 1.545831298828125 0.02096374511718757 Q 1.559937744140625 0.012539062500000031 1.576395263671875 0.007836914062500089 Q 1.592852783203125 0.0031347656250000355 1.6128369140625 0.0031347656250000355 Q 1.650845947265625 0.0031347656250000355 1.677491455078125 0.017828979492187536 Q 1.704136962890625 0.032523193359375036 1.7219659423828126 0.05681762695312509 Q 1.739794921875 0.08111206054687503 1.7497869873046876 0.11245971679687505 Q 1.759779052734375 0.14380737304687502 1.764873046875 0.177506103515625 Q 1.769967041015625 0.21120483398437506 1.7713385009765625 0.24451171875000005 Q 1.7727099609375 0.27781860351562504 1.7727099609375 0.3056396484375 M 2.30640380859375 0.5376123046875 L 2.11204833984375 0.5626904296875 L 2.08853759765625 0.47413330078125004 L 1.99919677734375 0.47413330078125004 L 1.9796044921875 0.5626904296875 L 1.7797631835937502 0.54309814453125 L 1.9357177734375002 0.021159667968750018 L 2.153583984375 0.010187988281250004 L 2.30640380859375 0.5376123046875 M 2.07443115234375 0.354228515625 L 2.04465087890625 0.21786621093750003 L 2.015654296875 0.354228515625 L 2.07443115234375 0.354228515625 M 2.72019287109375 0.37068603515625004 Q 2.72019287109375 0.42436889648437504 2.7015802001953126 0.46335754394531253 Q 2.682967529296875 0.50234619140625 2.6506402587890627 0.5276202392578125 Q 2.61831298828125 0.552894287109375 2.5750140380859374 0.5648455810546875 Q 2.531715087890625 0.576796875 2.48195068359375 0.576796875 Q 2.4627502441406253 0.576796875 2.439827270507813 0.571702880859375 Q 2.416904296875 0.56660888671875 2.3933935546875 0.5589678955078126 Q 2.3698828125 0.551326904296875 2.3481353759765624 0.5425103759765625 Q 2.326387939453125 0.53369384765625 2.30953857421875 0.5258569335937501 L 2.32677978515625 0.37225341796875 Q 2.360086669921875 0.392237548828125 2.400642700195313 0.40262145996093757 Q 2.44119873046875 0.41300537109375 2.48038330078125 0.41300537109375 Q 2.487828369140625 0.41300537109375 2.498408203125 0.41241760253906257 Q 2.508988037109375 0.411829833984375 2.5185882568359377 0.4088909912109375 Q 2.5281884765625002 0.40595214843750005 2.534849853515625 0.40007446289062504 Q 2.54151123046875 0.39419677734375 2.54151123046875 0.38322509765625 Q 2.54151123046875 0.37578002929687504 2.53680908203125 0.37049011230468754 Q 2.53210693359375 0.36520019531250003 2.524661865234375 0.36186950683593755 Q 2.517216796875 0.35853881835937507 2.5078125 0.35677551269531255 Q 2.498408203125 0.35501220703125 2.489395751953125 0.354228515625 Q 2.48038330078125 0.35344482421875 2.4725463867187503 0.35344482421875 Q 2.46470947265625 0.35344482421875 2.46000732421875 0.35344482421875 Q 2.42630859375 0.35344482421875 2.3986834716796874 0.342864990234375 Q 2.371058349609375 0.33228515625000005 2.3512701416015624 0.31288879394531255 Q 2.33148193359375 0.29349243164062505 2.32051025390625 0.2658673095703125 Q 2.30953857421875 0.23824218750000004 2.30953857421875 0.20454345703125004 Q 2.30953857421875 0.15830566406250002 2.3281512451171875 0.12166809082031255 Q 2.3467639160156253 0.08503051757812502 2.3779156494140627 0.05936462402343756 Q 2.4090673828125 0.03369873046875005 2.449427490234375 0.019984130859375004 Q 2.48978759765625 0.006269531250000071 2.5328906250000003 0.006269531250000071 Q 2.552091064453125 0.006269531250000071 2.572467041015625 0.007640991210937531 Q 2.592843017578125 0.009012451171874991 2.6130230712890627 0.012539062500000031 Q 2.633203125 0.01606567382812507 2.652403564453125 0.021551513671875022 Q 2.67160400390625 0.027037353515625084 2.68884521484375 0.03526611328125007 L 2.673955078125 0.19435546875000004 Q 2.6473095703125002 0.18534301757812505 2.6181170654296877 0.17926940917968753 Q 2.588924560546875 0.17319580078125002 2.561103515625 0.17319580078125002 Q 2.556009521484375 0.17319580078125002 2.5479766845703127 0.17339172363281252 Q 2.53994384765625 0.17358764648437502 2.5311273193359374 0.17456726074218754 Q 2.522310791015625 0.17554687500000005 2.5132983398437503 0.177506103515625 Q 2.504285888671875 0.17946533203125004 2.497232666015625 0.18279602050781252 Q 2.490179443359375 0.18612670898437506 2.485869140625 0.19161254882812506 Q 2.481558837890625 0.197098388671875 2.48195068359375 0.20454345703125004 Q 2.4823425292968753 0.21316406250000003 2.4884161376953124 0.21786621093750003 Q 2.49448974609375 0.22256835937500002 2.5040899658203126 0.22472351074218755 Q 2.513690185546875 0.22687866210937502 2.5252496337890626 0.22687866210937502 Q 2.53680908203125 0.22687866210937502 2.548172607421875 0.22629089355468757 Q 2.5595361328125 0.22570312500000006 2.569332275390625 0.22511535644531255 Q 2.57912841796875 0.22452758789062505 2.58539794921875 0.22491943359375005 Q 2.61674560546875 0.22687866210937502 2.64182373046875 0.23824218750000004 Q 2.6669018554687502 0.24960571289062505 2.6843389892578124 0.26841430664062504 Q 2.701776123046875 0.28722290039062504 2.7109844970703127 0.31328063964843755 Q 2.72019287109375 0.33933837890625007 2.72019287109375 0.37068603515625004 M 3.154749755859375 0.01880859374999999 L 3.150831298828125 0.18495117187500004 L 3.034061279296875 0.18965332031250004 L 3.019954833984375 0.5532861328125 L 2.8545959472656253 0.56190673828125 L 2.839705810546875 0.19827392578125003 L 2.722935791015625 0.20454345703125004 L 2.727637939453125 0.01959228515625 L 3.154749755859375 0.01880859374999999 M 3.61046630859375 0.25469970703125006 Q 3.61046630859375 0.28879028320312505 3.60576416015625 0.32288085937500005 Q 3.538758544921875 0.32719116210937504 3.47253662109375 0.33679138183593754 Q 3.406314697265625 0.34639160156250004 3.3400927734375 0.35579589843750004 Q 3.35028076171875 0.3840087890625 3.3720281982421874 0.40085815429687505 Q 3.3937756347656247 0.41770751953125007 3.42394775390625 0.41770751953125007 Q 3.4396215820312497 0.41770751953125007 3.4582342529296874 0.411829833984375 Q 3.4768469238281248 0.40595214843750005 3.4952636718749996 0.3971356201171875 Q 3.513680419921875 0.38831909179687507 3.53052978515625 0.37813110351562507 Q 3.5473791503906247 0.36794311523437506 3.5595263671875 0.35971435546875 L 3.5407177734374997 0.5376123046875 Q 3.525435791015625 0.54936767578125 3.5076068115234373 0.557596435546875 Q 3.48977783203125 0.5658251953125001 3.4705773925781247 0.570919189453125 Q 3.451376953125 0.5760131835937501 3.43178466796875 0.5783642578125 Q 3.4121923828125 0.58071533203125 3.3933837890625 0.58071533203125 Q 3.3545910644531247 0.58071533203125 3.322459716796875 0.570135498046875 Q 3.290328369140625 0.5595556640625 3.2642706298828124 0.5405511474609376 Q 3.238212890625 0.521546630859375 3.21862060546875 0.49568481445312507 Q 3.1990283203125 0.46982299804687505 3.186097412109375 0.43925903320312504 Q 3.1731665039062498 0.408695068359375 3.166505126953125 0.3746044921875 Q 3.15984375 0.34051391601562503 3.15984375 0.3056396484375 Q 3.15984375 0.26919799804687505 3.166505126953125 0.23275634765625003 Q 3.1731665039062498 0.19631469726562506 3.1866851806640626 0.16261596679687507 Q 3.200203857421875 0.12891723632812502 3.220775756835937 0.10011657714843752 Q 3.24134765625 0.07131591796875003 3.26877685546875 0.04976440429687501 Q 3.2962060546875 0.028212890624999987 3.3308843994140624 0.01606567382812507 Q 3.365562744140625 0.003918457031250044 3.407490234375 0.003918457031250044 Q 3.442364501953125 0.003918457031250044 3.4711651611328125 0.013518676757812487 Q 3.4999658203124997 0.02311889648437504 3.5224969482421873 0.04016418457031257 Q 3.545028076171875 0.05720947265625009 3.5616815185546873 0.08072021484375003 Q 3.5783349609374997 0.10423095703125002 3.5891107177734374 0.13224792480468756 Q 3.599886474609375 0.16026489257812504 3.6051763916015624 0.19141662597656256 Q 3.61046630859375 0.22256835937500002 3.61046630859375 0.25469970703125006 M 3.45372802734375 0.23432373046875005 Q 3.45372802734375 0.22335205078125003 3.451376953125 0.2117926025390625 Q 3.44902587890625 0.20023315429687505 3.4437359619140624 0.19082885742187505 Q 3.438446044921875 0.18142456054687506 3.4298254394531247 0.17535095214843754 Q 3.421204833984375 0.16927734375000003 3.4082739257812498 0.16927734375000003 Q 3.39260009765625 0.16927734375000003 3.3806488037109372 0.17770202636718752 Q 3.368697509765625 0.18612670898437506 3.360076904296875 0.19886169433593753 Q 3.3514562988281247 0.21159667968750007 3.345970458984375 0.22648681640625 Q 3.340484619140625 0.24137695312500002 3.33774169921875 0.25391601562500005 L 3.45372802734375 0.24294433593750003 L 3.45372802734375 0.23432373046875005" fill="#481965" fill-rule="nonzero"></path></g><g><path d=" M 0.5197139115767044 1.629984738547585 Q 0.44796686345880676 1.629984738547585 0.3924985573508522 1.6218453675426134 Q 0.3370302512428977 1.6137059965376417 0.2990465198863636 1.5965228799715907 Q 0.2610627885298295 1.5793397634055395 0.24146800648082384 1.552208526722301 Q 0.22187322443181814 1.5250772900390623 0.22187322443181814 1.4876964750532669 Q 0.22187322443181814 1.4732264821555394 0.22910822088068178 1.4668958602627837 Q 0.23634321732954544 1.460565238370028 0.24719571200284088 1.4572491983309657 Q 0.2580482066761363 1.4539331582919033 0.2707094504616477 1.45091857643821 Q 0.28337069424715905 1.4479039945845167 0.2942231889204545 1.4403675399502838 Q 0.30507568359375 1.4328310853160509 0.3123106800426136 1.4183610924183236 Q 0.31954567649147725 1.4038910995205964 0.31954567649147725 1.3767598628373579 L 0.31954567649147725 1.1597099693714488 L 0.15012617631392045 0.9251755011541192 Q 0.13384743430397725 0.902264679066051 0.1163628595525568 0.8890005189098009 Q 0.09887828480113635 0.8757363587535509 0.08290100097656249 0.8678984459339487 Q 0.06692371715198862 0.8600605331143464 0.05275518243963068 0.8555386603338067 Q 0.03858664772727272 0.8510167875532668 0.027734153053977268 0.8461934565873578 Q 0.016881658380681817 0.8413701256214486 0.010852494673295453 0.8335322128018464 Q 0.00482333096590909 0.8256942999822442 0.00482333096590909 0.8112243070845169 Q 0.00482333096590909 0.736462677112926 0.08229808460582386 0.7030008185369316 Q 0.15977283824573862 0.6695389599609374 0.3068844327059659 0.6695389599609374 Q 0.37802856445312494 0.6695389599609374 0.4334968705610795 0.6776783309659089 Q 0.48896517666903405 0.6858177019708805 0.5266474498401988 0.7030008185369316 Q 0.5643297230113635 0.7201839351029828 0.5839245050603693 0.7470137136008521 Q 0.603519287109375 0.7738434920987214 0.603519287109375 0.8112243070845169 Q 0.603519287109375 0.8281059654651987 0.5926667924360794 0.835943878284801 Q 0.581814297762784 0.8437817911044032 0.5688515957919034 0.849208038441051 Q 0.5558888938210227 0.8546342857776987 0.5450363991477272 0.8603619912997157 Q 0.5341839044744318 0.8660896968217328 0.5341839044744318 0.8787509406072441 Q 0.5341839044744318 0.8859859370561077 0.5390072354403408 0.8965369735440339 Q 0.5438305664062499 0.90708801003196 0.5552859774502841 0.922160919300426 L 0.6191951127485795 1.024656702325994 Q 0.6336651056463067 1.041538360706676 0.6463263494318181 1.041538360706676 Q 0.6553700949928977 1.041538360706676 0.6632080078124999 1.034906280628551 Q 0.6710459206321022 1.028274200550426 0.6776780007102272 1.0186275386186079 L 0.7464104669744317 0.922160919300426 Q 0.7566600452769886 0.9076909264026987 0.7602775435014204 0.8971398899147726 Q 0.7638950417258522 0.8865888534268465 0.7638950417258522 0.8787509406072441 Q 0.7638950417258522 0.869104278675426 0.7584687943892044 0.8636780313387782 Q 0.7530425470525567 0.8582517840021305 0.7449031760475852 0.8546342857776987 Q 0.7367638050426135 0.8510167875532668 0.7274186012961646 0.8480022056995737 Q 0.7180733975497158 0.8449876238458806 0.7099340265447442 0.84076720925071 Q 0.7017946555397726 0.8365467946555396 0.696368408203125 0.8296132563920453 Q 0.6909421608664772 0.822679718128551 0.6909421608664772 0.8112243070845169 Q 0.6909421608664772 0.7822843212890623 0.7023975719105113 0.7566603755326703 Q 0.7138529829545454 0.7310364297762783 0.7364623468572442 0.7117431059126419 Q 0.7590717107599431 0.6924497820490055 0.7925335693359374 0.6809943710049714 Q 0.8259954279119317 0.6695389599609374 0.8700083229758522 0.6695389599609374 Q 0.9146241344105113 0.6695389599609374 0.9483874511718748 0.6809943710049714 Q 0.9821507679332385 0.6924497820490055 1.0047601318359374 0.7117431059126419 Q 1.0273694957386363 0.7310364297762783 1.0388249067826703 0.7566603755326703 Q 1.0502803178267044 0.7822843212890623 1.0502803178267044 0.8112243070845169 Q 1.0502803178267044 0.8256942999822442 1.0430453213778408 0.8332307546164771 Q 1.0358103249289772 0.84076720925071 1.0231490811434658 0.8452890820312499 Q 1.0104878373579544 0.8498109548117896 0.9942090953480113 0.85403136940696 Q 0.9779303533380681 0.8582517840021305 0.9601443204012783 0.8660896968217328 Q 0.9423582874644886 0.8739276096413351 0.9236678799715908 0.8877946861683237 Q 0.9049774724786931 0.9016617626953123 0.8886987304687499 0.9251755011541192 L 0.7247054776278409 1.1597099693714488 L 0.7247054776278409 1.3743481973544032 Q 0.7247054776278409 1.4014794340376417 0.7319404740767045 1.4165523433061078 Q 0.7391754705255681 1.4316252525745736 0.7500279651988635 1.4394631653941758 Q 0.760880459872159 1.447301078213778 0.7732402454723011 1.4503156600674714 Q 0.7856000310724431 1.4533302419211644 0.7964525257457385 1.4569477401455964 Q 0.807305020419034 1.460565238370028 0.8145400168678977 1.4668958602627837 Q 0.8217750133167613 1.4732264821555394 0.8217750133167613 1.4876964750532669 Q 0.8217750133167613 1.5250772900390623 0.8021802312677556 1.552208526722301 Q 0.78258544921875 1.5793397634055395 0.7443002596768465 1.5965228799715907 Q 0.7060150701349431 1.6137059965376417 0.6496423894708806 1.6218453675426134 Q 0.5932697088068181 1.629984738547585 0.5197139115767044 1.629984738547585 M 1.428911798650568 1.6450576478160508 Q 1.3571647505326703 1.6450576478160508 1.297174571644176 1.6281759894353691 Q 1.2371843927556816 1.6112943310546872 1.1892525412819601 1.5820528870738633 Q 1.1413206898082384 1.5528114430930395 1.1051457075639202 1.5130189626242896 Q 1.0689707253196021 1.4732264821555394 1.0448540704900566 1.4271033797940338 Q 1.0207374156605111 1.3809802774325282 1.0086790882457384 1.3309382186612213 Q 0.9966207608309657 1.2808961598899145 0.9966207608309657 1.2308541011186076 Q 0.9966207608309657 1.1796062096058235 1.0095834628018465 1.1298656090198862 Q 1.0225461647727272 1.0801250084339487 1.0487730268998579 1.0355091969992896 Q 1.0749998890269885 0.9908933855646305 1.1141894531249998 0.9535125705788351 Q 1.1533790172230112 0.9161317555930396 1.2061341996626418 0.8890005189098009 Q 1.2588893821022724 0.8618692822265623 1.3249087246981532 0.8464949147727271 Q 1.3909280672940338 0.8311205473188918 1.470513028231534 0.8311205473188918 Q 1.5404513272372156 0.8311205473188918 1.598632757013494 0.8467963729580964 Q 1.6568141867897723 0.862472198597301 1.703841663707386 0.889904893465909 Q 1.7508691406249999 0.9173375883345168 1.78613974831321 0.9547184033203123 Q 1.82141035600142 0.9920992183061078 1.844924094460227 1.0361121133700282 Q 1.8684378329190339 1.0801250084339487 1.880194702148437 1.128961234463778 Q 1.8919515713778408 1.1777974604936077 1.8919515713778408 1.227236602894176 Q 1.8919515713778408 1.27848449440696 1.8792903275923294 1.329732385919744 Q 1.866629083806818 1.3809802774325282 1.8410051380504258 1.427404837979403 Q 1.815381192294034 1.4738293985262783 1.7767945445667612 1.5136218789950282 Q 1.7382078968394885 1.5534143594637781 1.686658547141335 1.582655803444602 Q 1.6351091974431817 1.6118972474254258 1.5705971457741477 1.6284774476207384 Q 1.5060850941051134 1.6450576478160508 1.428911798650568 1.6450576478160508 M 1.4560430353338065 1.49071105690696 Q 1.4759392755681815 1.49071105690696 1.489504893909801 1.4789541876775565 Q 1.50307051225142 1.4671973184481533 1.5115113414417611 1.4448894127308236 Q 1.5199521706321022 1.4225815070134942 1.5235696688565339 1.3909283975497158 Q 1.5271871670809656 1.3592752880859373 1.5271871670809656 1.3200857239879258 Q 1.5271871670809656 1.2857194908558236 1.526584250710227 1.2474343013139202 Q 1.5259813343394883 1.2091491117720168 1.5235696688565339 1.1720697549715906 Q 1.5211580033735794 1.1349903981711646 1.5157317560369314 1.1012270814098009 Q 1.510305508700284 1.0674637646484373 1.5003573885830965 1.041538360706676 Q 1.4904092684659087 1.0156129567649146 1.4753363591974429 1.0005400474964485 Q 1.460263449928977 0.9854671382279828 1.4385584605823862 0.9854671382279828 Q 1.4174563876065338 0.9854671382279828 1.4026849365234373 0.9972240074573862 Q 1.3879134854403408 1.0089808766867896 1.3782668235085225 1.0300829496626418 Q 1.3686201615767044 1.051185022638494 1.3640982887961646 1.0807279248046873 Q 1.3595764160156247 1.1102708269708805 1.3595764160156247 1.14584289284446 Q 1.3595764160156247 1.179003293235085 1.360782248757102 1.2175899409623576 Q 1.3619880814985794 1.2561765886896303 1.365605579723011 1.294461778231534 Q 1.369223077947443 1.3327469677734372 1.3761566162109373 1.3683190336470168 Q 1.3830901544744316 1.4038910995205964 1.3936411909623576 1.431022336203835 Q 1.4041922274502838 1.4581535728870736 1.4195665949041192 1.4744323148970169 Q 1.4349409623579543 1.49071105690696 1.4560430353338065 1.49071105690696 M 2.600981223366477 1.0807279248046873 Q 2.600981223366477 1.0560083536044034 2.594349143288352 1.0421412770774146 Q 2.587717063210227 1.028274200550426 2.5777689430930395 1.0213406622869317 Q 2.567820822975852 1.0144071240234374 2.556365411931818 1.0116940003551136 Q 2.544910000887784 1.0089808766867896 2.534961880770596 1.0059662948330965 Q 2.5250137606534087 1.0029517129794032 2.518381680575284 0.9972240074573862 Q 2.5117496004971587 0.9914963019353691 2.5117496004971587 0.9782321417791191 Q 2.5117496004971587 0.9094996755149146 2.582893732244318 0.8790523987926134 Q 2.654037863991477 0.8486051220703124 2.788488214666193 0.8486051220703124 Q 2.8337069424715904 0.8486051220703124 2.864455677379261 0.8570459512606532 Q 2.8952044122869314 0.8654867804509941 2.9154021107066757 0.8805596897194601 Q 2.93559980912642 0.8956325989879259 2.946753761985085 0.9167346719637782 Q 2.9579077148437496 0.9378367449396305 2.963032503995028 0.9634606906960226 Q 2.968157293146306 0.9890846364524146 2.969061667702414 1.0180246222478693 Q 2.9699660422585223 1.0469646080433237 2.9699660422585223 1.0783162593217328 L 2.9699660422585223 1.4014794340376417 Q 2.9699660422585223 1.4255960888671872 2.976296664151278 1.4388602490234372 Q 2.9826272860440337 1.4521244091796872 2.992575406161221 1.4590579474431815 Q 3.0025235262784085 1.4659914857066758 3.0136774791370735 1.4684031511896305 Q 3.024831431995738 1.470814816672585 3.0347795521129255 1.4738293985262783 Q 3.0447276722301133 1.4768439803799713 3.0510582941228686 1.4825716859019884 Q 3.0573889160156247 1.4882993914240055 3.0573889160156247 1.5015635515802555 Q 3.0573889160156247 1.57029601784446 2.987752075195312 1.600743294566761 Q 2.9181152343749996 1.6311905712890622 2.788488214666193 1.6311905712890622 Q 2.756533647017045 1.6311905712890622 2.731814075816761 1.626367240323153 Q 2.7070945046164767 1.6215439093572441 2.6887055553089487 1.6137059965376417 Q 2.6703166060014203 1.6058680837180395 2.65705244584517 1.595919963600852 Q 2.6437882856889203 1.5859718434836645 2.6347445401278407 1.575119348810369 Q 2.6136424671519882 1.5510026939808237 2.6082162198153407 1.519048126331676 Q 2.5768645685369314 1.5546201922052554 2.5340575062144883 1.5823543452592328 Q 2.5159700150923294 1.5944126726740053 2.493059193004261 1.6055666255326702 Q 2.470148370916193 1.616720578391335 2.4430171342329543 1.6254628657670451 Q 2.4158858975497157 1.6342051531427555 2.3842327880859373 1.6396314004794033 Q 2.352579678622159 1.6450576478160508 2.3170076127485792 1.6450576478160508 Q 2.2506868119673293 1.6450576478160508 2.2024535023082383 1.6284774476207384 Q 2.1542201926491473 1.6118972474254258 2.120758334073153 1.5841630943714486 Q 2.087296475497159 1.5564289413174714 2.066797318892045 1.5196510427024146 Q 2.0462981622869316 1.4828731440873577 2.0348427512428975 1.4424777472478691 Q 2.0233873401988633 1.4020823504083804 2.019468383789062 1.3607825790127839 Q 2.015549427379261 1.3194828076171872 2.015549427379261 1.2821019926313917 L 2.015549427379261 1.0837425066583806 Q 2.015549427379261 1.0584200190873578 2.008917347301136 1.0442514843749997 Q 2.002285267223011 1.0300829496626418 1.9920356889204542 1.0225464950284089 Q 1.9817861106178973 1.015010040394176 1.9703306995738634 1.0122969167258522 Q 1.9588752885298293 1.0095837930575282 1.9486257102272724 1.0062677530184656 Q 1.9383761319247157 1.0029517129794032 1.9317440518465905 0.9972240074573862 Q 1.9251119717684655 0.9914963019353691 1.9251119717684655 0.9782321417791191 Q 1.9251119717684655 0.9094996755149146 1.9962561035156248 0.8790523987926134 Q 2.0674002352627836 0.8486051220703124 2.2018505859374997 0.8486051220703124 Q 2.261539306640625 0.8486051220703124 2.297111372514204 0.8630751149680396 Q 2.3326834383877837 0.8775451078657669 2.3513738458806817 0.9025661372514203 Q 2.370064253373579 0.9275871666370736 2.3754905007102267 0.9619533997691759 Q 2.3809167480468747 0.9963196329012782 2.3809167480468747 1.0361121133700282 L 2.3809167480468747 1.3339528005149146 Q 2.3809167480468747 1.3713336155007099 2.3866444535688918 1.4005750594815338 Q 2.392372159090909 1.4298165034623578 2.405937777432528 1.4503156600674714 Q 2.4195033957741474 1.470814816672585 2.4418113014914766 1.4813658531605112 Q 2.4641192072088063 1.4919168896484372 2.4972796075994315 1.4919168896484372 Q 2.518381680575284 1.4919168896484372 2.5370720880681814 1.4852848095703122 Q 2.555762495561079 1.4786527294921872 2.5696295720880675 1.4665944020774146 Q 2.5834966486150566 1.454536074662642 2.591636019620028 1.4379558744673293 Q 2.5997753906249996 1.4213756742720167 2.5997753906249996 1.4014794340376417 L 2.600981223366477 1.0807279248046873 M 3.5336928488991473 1.329732385919744 Q 3.5336928488991473 1.349628626154119 3.5348986816406245 1.3680175754616475 Q 3.5361045143821017 1.386406524769176 3.5421336780894883 1.4008765176669031 Q 3.5481628417968745 1.4153465105646306 3.560824085582386 1.4237873397549714 Q 3.573485329367897 1.4322281689453122 3.595793235085227 1.4322281689453122 Q 3.6271448863636357 1.4322281689453122 3.6503571666370735 1.4240887979403407 Q 3.673569446910511 1.4159494269353692 3.698289018110795 1.4026852667791192 Q 3.7079356800426133 1.3972590194424714 3.716376509232954 1.3972590194424714 Q 3.7302435857599425 1.3972590194424714 3.738382956764914 1.409317346857244 Q 3.746522327769886 1.4213756742720167 3.746522327769886 1.4364485835404828 Q 3.746522327769886 1.4466981618430395 3.743507745916193 1.4533302419211644 Q 3.726023171164772 1.4979460533558235 3.6985904762961646 1.5335181192294032 Q 3.6711577814275564 1.5690901851029826 3.6352842573686077 1.5938097563032667 Q 3.5994107333096585 1.6185293275035508 3.5566036709872155 1.6317934876598008 Q 3.513796608664772 1.6450576478160508 3.464960382634943 1.6450576478160508 Q 3.3974337491122153 1.6450576478160508 3.3492004394531247 1.6278745312499998 Q 3.3009671297940337 1.6106914146839486 3.2678067294034085 1.5820528870738633 Q 3.234646329012784 1.5534143594637781 3.2147500887784086 1.5157320862926134 Q 3.194853848544034 1.4780498131214486 3.1843028120561074 1.436750041725852 Q 3.1737517755681814 1.3954502703302554 3.170435735529119 1.3535475825639203 Q 3.1671196954900562 1.311644894797585 3.1671196954900562 1.2742640798117897 L 3.1671196954900562 0.9691883962180395 L 3.137576793323863 0.9691883962180395 Q 3.1152688876065335 0.9691883962180395 3.102607643821022 0.9562256942471589 Q 3.089946400035511 0.9432629922762782 3.089946400035511 0.9275871666370736 Q 3.089946400035511 0.908896759144176 3.106828058416193 0.8962355153586646 Q 3.177369273792613 0.8455905402166192 3.235852161754261 0.7982616051136362 Q 3.2943350497159085 0.7509326700106532 3.3365391956676134 0.7135518550248579 Q 3.385978338068181 0.670141876331676 3.425167902166193 0.6321581449751419 Q 3.4408437278053974 0.6164823193359374 3.4571224698153404 0.6089458647017043 Q 3.4734012118252835 0.6014094100674714 3.4884741210937493 0.6014094100674714 Q 3.5071645285866473 0.6014094100674714 3.5198257723721587 0.6140706538529828 Q 3.53248701615767 0.6267318976384941 3.53248701615767 0.6532602179509942 L 3.53248701615767 0.8486051220703124 L 3.679598610617897 0.8486051220703124 Q 3.686833607066761 0.8486051220703124 3.6967817271839483 0.8495094966264203 Q 3.706729847301136 0.8504138711825282 3.7157735928622153 0.855840118519176 Q 3.724817338423295 0.8612663658558237 3.7311479603160507 0.8730232350852271 Q 3.7374785822088064 0.8847801043146305 3.7374785822088064 0.9064850936612214 Q 3.7374785822088064 0.9299988321200282 3.7314494185014198 0.9426600759055396 Q 3.7254202547940336 0.9553213196910509 3.716376509232954 0.9613504833984373 Q 3.7073327636718743 0.9673796471058237 3.697384643554687 0.9682840216619316 Q 3.6874365234374995 0.9691883962180395 3.679598610617897 0.9691883962180395 L 3.53248701615767 0.9691883962180395 L 3.5336928488991473 1.329732385919744 M 4.4471111505681815 1.0807279248046873 Q 4.4471111505681815 1.0560083536044034 4.440479070490056 1.0421412770774146 Q 4.433846990411931 1.028274200550426 4.423898870294743 1.0213406622869317 Q 4.413950750177556 1.0144071240234374 4.402495339133522 1.0116940003551136 Q 4.391039928089488 1.0089808766867896 4.3810918079723 1.0059662948330965 Q 4.371143687855113 1.0029517129794032 4.364511607776988 0.9972240074573862 Q 4.357879527698863 0.9914963019353691 4.357879527698863 0.9782321417791191 Q 4.357879527698863 0.9094996755149146 4.429023659446022 0.8790523987926134 Q 4.500167791193181 0.8486051220703124 4.634618141867897 0.8486051220703124 Q 4.679836869673295 0.8486051220703124 4.710585604580965 0.8570459512606532 Q 4.741334339488636 0.8654867804509941 4.761532037908379 0.8805596897194601 Q 4.781729736328124 0.8956325989879259 4.792883689186789 0.9167346719637782 Q 4.804037642045454 0.9378367449396305 4.809162431196732 0.9634606906960226 Q 4.81428722034801 0.9890846364524146 4.815191594904118 1.0180246222478693 Q 4.8160959694602266 1.0469646080433237 4.8160959694602266 1.0783162593217328 L 4.8160959694602266 1.4014794340376417 Q 4.8160959694602266 1.4255960888671872 4.822426591352983 1.4388602490234372 Q 4.828757213245738 1.4521244091796872 4.838705333362926 1.4590579474431815 Q 4.848653453480113 1.4659914857066758 4.859807406338778 1.4684031511896305 Q 4.870961359197443 1.470814816672585 4.88090947931463 1.4738293985262783 Q 4.8908575994318175 1.4768439803799713 4.897188221324573 1.4825716859019884 Q 4.903518843217329 1.4882993914240055 4.903518843217329 1.5015635515802555 Q 4.903518843217329 1.57029601784446 4.833882002397017 1.600743294566761 Q 4.764245161576704 1.6311905712890622 4.634618141867897 1.6311905712890622 Q 4.60266357421875 1.6311905712890622 4.577944003018465 1.626367240323153 Q 4.553224431818181 1.6215439093572441 4.534835482510653 1.6137059965376417 Q 4.5164465332031245 1.6058680837180395 4.503182373046874 1.595919963600852 Q 4.4899182128906245 1.5859718434836645 4.480874467329545 1.575119348810369 Q 4.459772394353692 1.5510026939808237 4.454346147017045 1.519048126331676 Q 4.422994495738636 1.5546201922052554 4.380187433416192 1.5823543452592328 Q 4.362099942294034 1.5944126726740053 4.339189120205965 1.6055666255326702 Q 4.316278298117897 1.616720578391335 4.289147061434658 1.6254628657670451 Q 4.26201582475142 1.6342051531427555 4.230362715287641 1.6396314004794033 Q 4.198709605823863 1.6450576478160508 4.1631375399502835 1.6450576478160508 Q 4.096816739169033 1.6450576478160508 4.048583429509942 1.6284774476207384 Q 4.000350119850852 1.6118972474254258 3.9668882612748573 1.5841630943714486 Q 3.933426402698863 1.5564289413174714 3.912927246093749 1.5196510427024146 Q 3.892428089488636 1.4828731440873577 3.8809726784446017 1.4424777472478691 Q 3.8695172674005676 1.4020823504083804 3.8655983109907663 1.3607825790127839 Q 3.861679354580965 1.3194828076171872 3.861679354580965 1.2821019926313917 L 3.861679354580965 1.0837425066583806 Q 3.861679354580965 1.0584200190873578 3.8550472745028403 1.0442514843749997 Q 3.848415194424715 1.0300829496626418 3.8381656161221582 1.0225464950284089 Q 3.8279160378196018 1.015010040394176 3.8164606267755676 1.0122969167258522 Q 3.8050052157315335 1.0095837930575282 3.7947556374289766 1.0062677530184656 Q 3.7845060591264197 1.0029517129794032 3.777873979048295 0.9972240074573862 Q 3.7712418989701697 0.9914963019353691 3.7712418989701697 0.9782321417791191 Q 3.7712418989701697 0.9094996755149146 3.842386030717329 0.8790523987926134 Q 3.913530162464488 0.8486051220703124 4.047980513139204 0.8486051220703124 Q 4.107669233842329 0.8486051220703124 4.143241299715909 0.8630751149680396 Q 4.178813365589488 0.8775451078657669 4.197503773082386 0.9025661372514203 Q 4.216194180575283 0.9275871666370736 4.221620427911931 0.9619533997691759 Q 4.2270466752485785 0.9963196329012782 4.2270466752485785 1.0361121133700282 L 4.2270466752485785 1.3339528005149146 Q 4.2270466752485785 1.3713336155007099 4.2327743807705955 1.4005750594815338 Q 4.238502086292613 1.4298165034623578 4.252067704634232 1.4503156600674714 Q 4.265633322975852 1.470814816672585 4.287941228693181 1.4813658531605112 Q 4.310249134410511 1.4919168896484372 4.343409534801136 1.4919168896484372 Q 4.364511607776988 1.4919168896484372 4.383202015269886 1.4852848095703122 Q 4.401892422762783 1.4786527294921872 4.415759499289772 1.4665944020774146 Q 4.42962657581676 1.454536074662642 4.437765946821732 1.4379558744673293 Q 4.445905317826703 1.4213756742720167 4.445905317826703 1.4014794340376417 L 4.4471111505681815 1.0807279248046873 M 5.4250415039062485 0.908896759144176 Q 5.441923162286931 0.8950296826171873 5.46453252618963 0.8811626060901987 Q 5.487141890092328 0.8672955295632101 5.516684792258522 0.8561415767045453 Q 5.546227694424715 0.8449876238458806 5.58360850941051 0.8380540855823861 Q 5.620989324396305 0.8311205473188918 5.667413884943181 0.8311205473188918 Q 5.728308438387783 0.8311205473188918 5.775034457120027 0.8486051220703124 Q 5.821760475852272 0.8660896968217328 5.856428167169743 0.8959340571732953 Q 5.891095858487215 0.9257784175248578 5.914609596946021 0.9661738143643464 Q 5.938123335404828 1.0065692112038351 5.952291870117186 1.0523908553799712 Q 5.966460404829544 1.0982124995561078 5.972489568536931 1.1470487255859374 Q 5.978518732244317 1.1958849516157668 5.978518732244317 1.243515344904119 Q 5.978518732244317 1.2941603200461644 5.970379361239345 1.3435994624467327 Q 5.962239990234374 1.393038604847301 5.945659790039061 1.43765441628196 Q 5.929079589843749 1.482270227716619 5.903154185901988 1.5202539590731532 Q 5.877228781960226 1.5582376904296873 5.841656716086646 1.5859718434836645 Q 5.806084650213067 1.6137059965376417 5.7605644642223 1.6293818221768464 Q 5.715044278231533 1.6450576478160508 5.658370139382101 1.6450576478160508 Q 5.605916415127839 1.6450576478160508 5.565219560102982 1.6363153604403406 Q 5.524522705078124 1.6275730730646305 5.493472511985084 1.6143089129083805 Q 5.462422318892044 1.6010447527521303 5.440415871360084 1.5850674689275566 Q 5.418409423828123 1.5690901851029826 5.4039394309303965 1.5546201922052554 Q 5.395498601740056 1.572104766956676 5.3822344415838055 1.5862733016690338 Q 5.368970281427556 1.6004418363813917 5.34907404119318 1.61008849831321 Q 5.3291778009588056 1.619735160245028 5.301142189719459 1.6248599493963065 Q 5.273106578480112 1.629984738547585 5.236328679865055 1.629984738547585 Q 5.171213711825283 1.629984738547585 5.121171653053976 1.6227497420987214 Q 5.071129594282669 1.6155147456498578 5.036763361150567 1.5995374618252838 Q 5.0023971280184645 1.58356017800071 4.984611095081675 1.5591420649857952 Q 4.966825062144885 1.5347239519708804 4.966825062144885 1.5003577188387782 Q 4.966825062144885 1.4870935586825282 4.97345714222301 1.4813658531605112 Q 4.980089222301135 1.475638147638494 4.989735884232953 1.4726235657848008 Q 4.999382546164772 1.4696089839311077 5.010837957208806 1.4671973184481533 Q 5.02229336825284 1.4647856529651986 5.031940030184658 1.4578521147017043 Q 5.041586692116476 1.45091857643821 5.048218772194601 1.4379558744673293 Q 5.054850852272726 1.4249931724964486 5.054850852272726 1.4002736012961645 L 5.054850852272726 0.7225956005859373 Q 5.054850852272726 0.6978760293856533 5.048218772194601 0.6849133274147726 Q 5.041586692116476 0.671950625443892 5.031940030184658 0.6650170871803975 Q 5.02229336825284 0.6580835489169032 5.010837957208806 0.6556718834339487 Q 4.999382546164772 0.6532602179509942 4.989735884232953 0.650245636097301 Q 4.980089222301135 0.6472310542436078 4.97345714222301 0.6415033487215908 Q 4.966825062144885 0.6357756431995737 4.966825062144885 0.6225114830433238 Q 4.966825062144885 0.5881452499112214 4.984611095081675 0.5637271368963066 Q 5.0023971280184645 0.539309023881392 5.036763361150567 0.523331740056818 Q 5.071129594282669 0.5073544562322443 5.121171653053976 0.5001194597833805 Q 5.171213711825283 0.49288446333451685 5.236328679865055 0.49288446333451685 Q 5.301443647904828 0.49288446333451685 5.339125921075993 0.49951654341264184 Q 5.3768081942471575 0.5061486234907668 5.396101518110794 0.5221259073153408 Q 5.415394841974431 0.5381031911399146 5.420821089311079 0.5652344278231534 Q 5.426247336647726 0.5923656645063919 5.426247336647726 0.6333639777166191 L 5.4250415039062485 0.908896759144176 M 5.496788552024147 0.9854671382279828 Q 5.475686479048294 0.9854671382279828 5.4572975297407655 0.9927021346768464 Q 5.438908580433237 0.99993713112571 5.423835671164771 1.0101867094282668 L 5.423835671164771 1.39786193581321 Q 5.423835671164771 1.4153465105646306 5.423835671164771 1.4322281689453122 Q 5.423835671164771 1.4491098273259941 5.422629838423294 1.4647856529651986 Q 5.439511496803976 1.4750352312677555 5.460613569779828 1.4834760604580963 Q 5.481715642755681 1.4919168896484372 5.507641046697442 1.4919168896484372 Q 5.541404363458805 1.4919168896484372 5.559793312766334 1.480160020419034 Q 5.578182262073862 1.4684031511896305 5.586623091264204 1.4400660817649145 Q 5.595063920454544 1.4117290123401987 5.596571211381391 1.3644000772372156 Q 5.598078502308237 1.3170711421342327 5.598078502308237 1.2459270103870737 Q 5.598078502308237 1.1711653804154827 5.59265225497159 1.1208218634588065 Q 5.587226007634942 1.0704783465021306 5.5751676802201695 1.040633986150568 Q 5.563109352805396 1.0107896257990054 5.54381602894176 0.9981283820134941 Q 5.524522705078124 0.9854671382279828 5.496788552024147 0.9854671382279828 M 6.499438476562498 0.9854671382279828 Q 6.480145152698863 0.9854671382279828 6.463263494318181 0.994209425603693 Q 6.4463818359374985 1.0029517129794032 6.434022050337357 1.0210392041015623 Q 6.421662264737215 1.0391266952237213 6.4147287264737205 1.067162306463068 Q 6.407795188210226 1.0951979177024147 6.407795188210226 1.1337845654296874 L 6.600125510475851 1.1337845654296874 Q 6.600125510475851 1.0915804194779828 6.593493430397726 1.0629418918678977 Q 6.586861350319601 1.0343033642578123 6.574200106534089 1.0171202476917611 Q 6.561538862748578 0.99993713112571 6.542546997070311 0.9927021346768464 Q 6.523555131392044 0.9854671382279828 6.499438476562498 0.9854671382279828 M 6.45482266512784 0.8311205473188918 Q 6.535613458806817 0.8311205473188918 6.60042696866122 0.8552372021484373 Q 6.665240478515623 0.8793538569779827 6.710760664506391 0.9215580029296874 Q 6.756280850497157 0.9637621488813919 6.780698963512073 1.020737745916193 Q 6.8051170765269875 1.077713342950994 6.8051170765269875 1.1434312273615055 Q 6.8051170765269875 1.170562464044744 6.797580621892754 1.1856353733132101 Q 6.790044167258522 1.200708282581676 6.776177090731533 1.2079432790305396 Q 6.7623100142045445 1.2151782754794032 6.741810857599431 1.216987024591619 Q 6.721311700994317 1.218795773703835 6.695386297052556 1.218795773703835 L 6.405383522727272 1.218795773703835 Q 6.405383522727272 1.285116574485085 6.418949141068891 1.3264163458806815 Q 6.43251475941051 1.3677161172762782 6.456631414240055 1.3906269393643464 Q 6.480748069069601 1.4135377614524145 6.514511385830964 1.4216771324573863 Q 6.5482747025923285 1.4298165034623578 6.589273015802555 1.4298165034623578 Q 6.610978005149146 1.4298165034623578 6.634190285422584 1.4255960888671872 Q 6.657402565696022 1.4213756742720167 6.678806096857243 1.4147435941938917 Q 6.700209628018465 1.4081115141157667 6.718297119140624 1.4008765176669031 Q 6.736384610262783 1.3936415212180395 6.748442937677556 1.3870094411399145 Q 6.758089599609374 1.3815831938032668 6.767133345170453 1.3815831938032668 Q 6.781000421697442 1.3815831938032668 6.788838334517044 1.3933400630326702 Q 6.796676247336647 1.4050969322620737 6.796676247336647 1.4195669251598009 Q 6.796676247336647 1.42439025612571 6.796073330965908 1.4286106707208805 Q 6.795470414595169 1.4328310853160509 6.793661665482953 1.4370514999112214 Q 6.776177090731533 1.4816673113458805 6.746031272194601 1.5196510427024146 Q 6.715885453657669 1.5576347740589487 6.672776933149857 1.5856703852982952 Q 6.629668412642044 1.6137059965376417 6.572994273792612 1.6293818221768464 Q 6.5163201349431805 1.6450576478160508 6.44577891956676 1.6450576478160508 Q 6.378252286044033 1.6450576478160508 6.322482521750709 1.629080363991477 Q 6.266712757457385 1.613103080166903 6.2217954878373565 1.584464552556818 Q 6.176878218217328 1.5558260249467326 6.143114901455965 1.51723937721946 Q 6.109351584694601 1.4786527294921872 6.087043678977271 1.4331325435014202 Q 6.064735773259942 1.3876123575106531 6.053581820401277 1.3378717569247156 Q 6.042427867542613 1.2881311563387783 6.042427867542613 1.2374861811967328 Q 6.042427867542613 1.1862382896839487 6.053883278586647 1.1358947727272726 Q 6.06533868963068 1.0855512557705964 6.0882495117187485 1.0403325279651987 Q 6.111160333806817 0.995113800159801 6.145526566938919 0.9568286106178976 Q 6.179892800071022 0.9185434210759942 6.225714444247158 0.8905078098366476 Q 6.271536088423295 0.862472198597301 6.3288131436434645 0.8467963729580964 Q 6.386090198863635 0.8311205473188918 6.45482266512784 0.8311205473188918" fill="#ff0000" fill-rule="nonzero"></path></g><g clip-path="url(&quot;#SvgjsClipPath1003&quot;)"><g clip-path="url(&quot;#SvgjsClipPath1000&quot;)"><path d=" M -0.12546030071481185 0.026343811230169226 C -0.12418715400364766 -0.0040097234816831445 -0.14608747216211726 -0.030404114192041636 -0.1761547527727143 -0.03475343698246969 C -0.20476820129263817 -0.04180675436344707 -0.23462313671179458 -0.042163795448306104 -0.2633970815866411 -0.03579678526937709 C -0.2642563095876249 -0.022662871540090126 -0.26539171801749273 -0.011799774670539019 -0.26557583830341924 -0.0009366778009879118 C -0.2659747655895881 0.023121706226490513 -0.26557583830341924 0.047210776968290444 -0.26631231944711686 0.07123847428144735 C -0.2672888796158337 0.0799776612536397 -0.2690345612151068 0.08861365081238914 -0.2715290608816485 0.09704600102520927 C -0.342988526609036 0.10527309704458362 -0.4152251429350484 0.1039521989174799 -0.48633606112699224 0.09311810159215447 C -0.48633606112699224 0.06243138727138953 -0.48590644712650044 0.030486517663474627 -0.48658155484155774 -0.0013356050871568964 C -0.48748167928854813 -0.012193711231235412 -0.4891117606589255 -0.022978903694369262 -0.49146074241855797 -0.033618028552600425 C -0.5053925107201855 -0.0344465698392599 -0.5164704145899806 -0.035520604840488815 -0.5276096918884174 -0.03567403841209103 C -0.5613650776412573 -0.0361036524125842 -0.5951204633940974 -0.03644120627011016 -0.6286917288610139 -0.03634914612714829 C -0.9495929294180119 -0.035510375935714975 -1.270463443260688 -0.034559087791769444 -1.5913032703890444 -0.03349528169531704 C -1.6067598161787133 -0.03687021465004025 -1.6229224524692603 -0.033523913140609166 -1.635768319439832 -0.024289267399087565 C -1.6377688367875536 -0.003095800534006196 -1.6385679698391107 0.01819392358314468 -1.6381618831568499 0.039477724959458865 C -1.6355631745093977 0.06109093887359028 -1.6373372546145735 0.0830060460551797 -1.6433786245913802 0.10391982503306255 C -1.714051897150395 0.11159848918637083 -1.785400744866525 0.1105678832681827 -1.8558227478340263 0.10085115360098604 C -1.865028762130256 0.05927065569635118 -1.8516493546864035 0.015450027646299276 -1.8632796194139722 -0.026191843686975955 C -1.8927274832106686 -0.03702269900249269 -1.9251274211301244 -0.03666233568893154 -1.954327100803677 -0.025179182114390068 C -1.982111511268334 -0.018523528489454644 -2.0011303400540434 0.007089183831748488 -1.9994672575695207 0.03561119895504172 C -1.9994672575695207 0.04843824554112158 -1.999682064569766 0.06126529212720143 -1.9997434379984078 0.07409233871328127 C -2.002300664191804 0.5714626044242171 -2.0048374325756546 1.0688226412303765 -2.0073537431499573 1.5661724491317661 C -2.0073537431499573 1.5774037865731647 -2.0078754172934095 1.588665810728885 -2.0073537431499573 1.5999278348846062 C -2.009518292011772 1.631982275621531 -1.9867387877446252 1.6603398893108603 -1.954971521804413 1.6651371028162292 C -1.9266321027598097 1.6713283402509236 -1.8973487776249405 1.6718601955151244 -1.8688032279917097 1.6667021252465888 C -1.8659186768455582 1.6441780769351473 -1.8634023662712558 1.6242930860552918 -1.860978115839915 1.6053286966050604 C -1.789770677695622 1.5977369661345402 -1.7179301299355634 1.598282616611939 -1.6468462233096284 1.6069550924640603 C -1.6451277673076636 1.6250295671989907 -1.6433172511627385 1.643779149648977 -1.6414760483034931 1.6636948272431513 C -1.624237472065225 1.6683301317272026 -1.6062846073346357 1.6697039161587608 -1.5885414661001764 1.667745473533491 C -1.3302616205670832 1.667131739247078 -1.0719613172244422 1.6663748002938314 -0.8136405560722548 1.6654746566737564 C -0.7221941473963798 1.6651064161019062 -0.6307477387205045 1.66403238110068 -0.5393320167589495 1.6628662859564918 C -0.524914752559327 1.6655572019186544 -0.5100103538406393 1.6630568286835725 -0.49726053142518367 1.6558083416627163 C -0.4953579551372953 1.6370280724984072 -0.49345537884940827 1.6184932970486674 -0.49167554941880454 1.6008791230285477 C -0.420351111229585 1.5915149945594107 -0.3481600368194617 1.5907525941731768 -0.2766537421732156 1.5986083061688132 C -0.27499665959989383 1.616406600474854 -0.27333957702657097 1.63512549621052 -0.2710994468811565 1.6590918200950366 C -0.24046702501192496 1.665636868057485 -0.2086742303878817 1.664295890004593 -0.1787017500613346 1.6551946073762993 C -0.15102079255279666 1.6485153748103212 -0.13152179584169454 1.6237388357232811 -0.13153627015032177 1.5952634543078485 C -0.130922535863909 1.5856891994397702 -0.1311680295784743 1.57602288442873 -0.13113734286415424 1.5663872561320114 C -0.1290915619094375 1.0658255721317156 -0.12710715438335973 0.5652638881314211 -0.1251841202859263 0.06470220413112807 C -0.12515343357160336 0.05199790440232892 -0.12466244614247257 0.03926291795921094 -0.12546030071481185 0.026343811230169226 Z M -1.648288498882702 1.3790755519180673 C -1.7169838265145922 1.391750776648843 -1.7873140664074794 1.3928605444808073 -1.8563751086918014 1.3823590303503903 C -1.865762717646339 1.3148375797589507 -1.86666989952368 1.2464072013296412 -1.859075539552028 1.1786606206891643 C -1.788690296526197 1.1664612224814357 -1.7167083326656423 1.1667312846835112 -1.6464166093091366 1.1794584752615025 C -1.6402151348056517 1.2458865395624368 -1.6408423791636766 1.3127754665944653 -1.6482884988827033 1.379075551918066 Z M -1.6427342035906445 0.9521312955732845 C -1.678815859841387 0.9592894981371067 -1.7157227134556803 0.9613553729545854 -1.7523778338587321 0.9582686384374348 C -1.7868713225243302 0.9602033859025298 -1.821457932393744 0.9597214497436619 -1.8558841212626653 0.9568263628643597 C -1.8643547089260473 0.8883555097237995 -1.8642928626113613 0.8190979449936354 -1.855700000976743 0.7506423293431473 C -1.7871469524381258 0.743179852048856 -1.718045759059712 0.7421524777791801 -1.649301160455288 0.7475736579110709 C -1.6461957752256613 0.7525003170121864 -1.6439444639259668 0.7579159137791911 -1.6426421434476826 0.7635921227865106 C -1.638468750300057 0.825579285714456 -1.6413533014462098 0.8876278220710405 -1.6427342035906445 0.9521312955732858 Z M -1.6400030860160966 0.4257313981149066 C -1.6389904244435107 0.45908785658157636 -1.6404020133022656 0.4925363751912094 -1.6407702538741158 0.528623951232427 C -1.713557750138931 0.5359001817785298 -1.786927461627379 0.5350871354596088 -1.8595358402668385 0.5261997008010862 C -1.8622055844127448 0.4603460118687277 -1.8608553689826315 0.39372515507835004 -1.8593210332665933 0.32805558643191657 C -1.7881535063218503 0.3172783461714346 -1.7159139547488353 0.31548447119302664 -1.644299226021003 0.3227160981401042 C -1.6381335087937068 0.35669322557308386 -1.6366878158740432 0.39135887651103185 -1.6400030860160966 0.42573139811490796 Z M -0.7158113108176614 0.8423956051622323 C -0.7286866171028288 0.8565707642398246 -0.7439299305201554 0.8683978309852836 -0.760859407440543 0.8773477727735834 C -0.8598854345536462 0.9266613226870513 -0.9528354922312381 0.9864390421838971 -1.048148426911529 1.0421354286760833 C -1.0812900783779549 1.0615294321268054 -1.112989454271303 1.0833476860088693 -1.1461311057377277 1.1026803160309497 C -1.1665150631030357 1.1152602620250205 -1.1881025389420505 1.1257764466837419 -1.2105732058113328 1.134072824781092 C -1.2231749875317623 1.1401418095197622 -1.2378631992391531 1.140100347405735 -1.2504305171546224 1.133960314938464 C -1.2629978350700903 1.1278202824711916 -1.2720578185331517 1.116259054944797 -1.275015305884935 1.1025882558879878 C -1.280563726348039 1.0876118320222987 -1.2838425112510081 1.0718902135601116 -1.284742994324617 1.055944450120429 C -1.2863387034692968 1.0207774755088326 -1.2857556558972014 0.9746553438847261 -1.2858170293258433 0.9393349357015262 C -1.2858170293258433 0.8929059369342125 -1.2858170293258433 0.8199022435651151 -1.2858170293258433 0.7892155292443515 L -1.284374753752768 0.7892155292443515 C -1.284374753752768 0.6971553862820606 -1.2850805481821457 0.6623566522423145 -1.2839451397522763 0.5935263520208427 C -1.2840180849269216 0.5713995749959747 -1.2810126722039148 0.5493702095726962 -1.2750153058849363 0.5280715903746598 C -1.2661468454462343 0.49652564805290855 -1.2436534838491142 0.48817886175766134 -1.2118006743841612 0.4966177081958717 C -1.194738897970986 0.501480912696587 -1.1783489065588202 0.5084492360894332 -1.163008798614147 0.5173619270767083 C -1.027987255602788 0.5938945925926928 -0.8932418930203145 0.6715933532528655 -0.7587420241524081 0.7491079936271144 C -0.7435276421676067 0.758087606503242 -0.7295408215165484 0.7690006273357056 -0.717130839533453 0.7815745373784817 C -0.7085317940500924 0.7892594690569316 -0.7035077712642934 0.800168476441351 -0.7032576265602397 0.8116984021026187 C -0.703007481856186 0.8232283277638863 -0.7075536526586388 0.8343449629607657 -0.7158113108176614 0.842395605162235 Z M -0.27533421345742126 1.3779708302025182 C -0.3454016611418107 1.3838256807513514 -0.41582270913731945 1.3841232489273485 -0.4859371338408247 1.378860744917818 C -0.4958999775507824 1.3107381772131204 -0.4966637505560263 1.2415857564680108 -0.4882079507005579 1.173259758968705 C -0.4180697767770791 1.1634202585519449 -0.34695625242548744 1.1626570387111883 -0.276623055458894 1.1709889421089665 C -0.27098060756177134 1.205004813493413 -0.2696813696861555 1.2395995997845937 -0.27275652945447826 1.27394286865513 C -0.27103003855570984 1.3086347386910797 -0.27189165317205477 1.3434070428507778 -0.27533421345742126 1.3779708302025195 Z M -0.2771447296023464 0.9502287192853948 C -0.3464079065381658 0.9556102829105627 -0.41598930575259674 0.9554768869232755 -0.4852313394114445 0.9498297919992271 C -0.4944219525307061 0.8824262896011293 -0.4944219525307061 0.8140872455938676 -0.4852313394114445 0.746683743195771 C -0.41606345585385807 0.7378537959970569 -0.34611085335809055 0.736988912480771 -0.2767458023161786 0.744106059192828 C -0.2685937851196101 0.8125799172031755 -0.2687277275269575 0.8817869287531701 -0.2771447296023464 0.9502287192853974 Z M -0.2740760581702699 0.5206147187947058 C -0.3429596323442694 0.5304042801874046 -0.41280533291683286 0.5314353652268582 -0.48194786097912146 0.5236833902267823 C -0.4909046590894419 0.45623873839891493 -0.4913273736535486 0.3879342509060685 -0.4832060162662728 0.320383907851724 C -0.4131164083356178 0.31174240454231306 -0.34227926784832974 0.3109807148596551 -0.27202004831077664 0.31811309099198676 C -0.2666387005562292 0.3855804905301695 -0.26733708013291735 0.45339520148415285 -0.27410674488458997 0.5207374656519892 Z" fill="#ff0000" transform="matrix(1,0,0,1,0,0)" fill-rule="evenodd"></path></g></g></g><defs><clipPath id="SvgjsClipPath1003"><path d=" M -2.007629923578843 -0.040369105703170316 h 1.8826299235788428 v 1.7107229499539256 h -1.8826299235788428 Z"></path></clipPath><clipPath id="SvgjsClipPath1000"><path d=" M -2.007629923578843 -0.04036910570317015 L -0.125 -0.04036910570317015 L -0.125 1.6703538442507553 L -2.007629923578843 1.6703538442507553 Z"></path></clipPath></defs></svg>